<svg width="12" height="16" viewBox="0 0 12 16" fill="none" xmlns="http://www.w3.org/2000/svg">
<path d="M6.93333 0.615385V1.23077H11.5556V2.46154H0V1.23077H4.62222V0.615385C4.62222 0.275517 4.8809 0 5.2 0H6.35556C6.67465 0 6.93333 0.275517 6.93333 0.615385Z" fill="black"/>
<path fill-rule="evenodd" clip-rule="evenodd" d="M0.424306 3.69231H11.1312L9.81326 14.9219C9.74098 15.5378 9.24941 16 8.66663 16H2.88885C2.30608 16 1.81451 15.5378 1.74222 14.9219L0.424306 3.69231ZM1.7333 4.92308L2.82559 14.2302C2.86173 14.5381 3.10752 14.7692 3.39891 14.7692H8.15658C8.44797 14.7692 8.69375 14.5381 8.72989 14.2302L9.82219 4.92308H1.7333Z" fill="black"/>
</svg>
