<svg width="320" height="320" viewBox="0 0 320 320" fill="none" xmlns="http://www.w3.org/2000/svg">
<path fill-rule="evenodd" clip-rule="evenodd" d="M147.616 24.7215C150.9 21.437 155.355 19.5918 160 19.5918C164.645 19.5918 169.1 21.437 172.384 24.7215C175.669 28.006 177.514 32.4608 177.514 37.1058V38.3347V38.3738C177.539 44.6782 179.407 50.8376 182.888 56.0939C186.36 61.3357 191.284 65.4512 197.058 67.9369C202.955 70.528 209.491 71.298 215.829 70.149C222.185 68.9967 228.049 65.9669 232.667 61.4502C232.692 61.425 232.718 61.3997 232.743 61.3742L233.567 60.5511C235.193 58.9227 237.125 57.6309 239.251 56.7495C241.377 55.8682 243.656 55.4145 245.958 55.4145C248.259 55.4145 250.538 55.8682 252.664 56.7495C254.791 57.6309 256.722 58.9227 258.349 60.5511L258.356 60.5588C259.985 62.1854 261.277 64.117 262.158 66.2431C263.039 68.3693 263.493 70.648 263.493 72.95C263.493 75.251 263.039 77.531 262.158 79.657C261.277 81.783 259.985 83.714 258.356 85.341L257.533 86.164C257.508 86.19 257.483 86.215 257.457 86.241C252.967 90.832 250.153 96.013 248.787 102.928C247.867 107.585 248.579 112.678 249.136 115.717C249.448 117.417 249.797 118.9 250.068 119.962C250.196 120.464 250.31 120.881 250.397 121.192C250.527 121.765 250.71 122.335 250.95 122.894C253.434 128.689 257.557 133.631 262.814 137.112C268.07 140.593 274.229 142.461 280.534 142.486H280.573H282.894C287.539 142.486 291.994 144.331 295.278 147.616C298.563 150.9 300.408 155.355 300.408 160C300.408 164.645 298.563 169.1 295.278 172.384C291.994 175.669 287.539 177.514 282.894 177.514H281.665H281.626C275.322 177.539 269.162 179.407 263.906 182.888C258.664 186.36 254.548 191.285 252.063 197.059C249.472 202.955 248.702 209.492 249.851 215.829C251.003 222.185 254.033 228.049 258.55 232.667L258.598 232.715L258.626 232.744L259.449 233.567C261.077 235.193 262.369 237.125 263.25 239.251C264.132 241.377 264.585 243.656 264.585 245.958C264.585 248.259 264.132 250.538 263.25 252.664C262.369 254.791 261.077 256.722 259.449 258.349L259.441 258.356C257.815 259.985 255.883 261.277 253.757 262.158C251.631 263.039 249.352 263.493 247.05 263.493C244.748 263.493 242.469 263.039 240.343 262.158C238.217 261.277 236.286 259.985 234.659 258.356L233.836 257.533L233.789 257.486L233.759 257.457C229.142 252.941 223.277 249.911 216.922 248.758C210.583 247.609 204.046 248.38 198.149 250.971C192.376 253.457 187.452 257.572 183.981 262.814C180.5 268.07 178.632 274.229 178.606 280.534V280.573V282.894C178.606 287.539 176.761 291.994 173.477 295.278C170.192 298.563 165.737 300.408 161.092 300.408C156.447 300.408 151.993 298.563 148.708 295.278C145.424 291.994 143.578 287.539 143.578 282.894V281.665C143.578 281.589 143.578 281.513 143.576 281.436C143.424 274.951 141.325 268.662 137.552 263.386C133.838 258.194 128.672 254.22 122.707 251.961C116.872 249.452 110.425 248.717 104.171 249.851C97.815 251.003 91.951 254.033 87.333 258.55C87.308 258.575 87.282 258.6 87.256 258.626L86.437 259.445L86.433 259.449C84.807 261.077 82.875 262.369 80.749 263.25C78.623 264.132 76.344 264.585 74.042 264.585C71.741 264.585 69.4617 264.132 67.3355 263.25C65.2093 262.369 63.2778 261.077 61.6512 259.449L61.6435 259.441C60.0151 257.815 58.7233 255.883 57.8419 253.757C56.9606 251.631 56.5069 249.352 56.5069 247.05C56.5069 244.748 56.9606 242.469 57.8419 240.343C58.7233 238.217 60.0151 236.286 61.6435 234.659L61.6473 234.655L62.4666 233.836C62.4921 233.81 62.5174 233.785 62.5426 233.759C67.0593 229.142 70.089 223.277 71.241 216.922C72.391 210.583 71.62 204.047 69.0293 198.15C66.5436 192.376 62.4281 187.452 57.1863 183.981C51.93 180.5 45.7705 178.632 39.4662 178.606H39.4489H39.4271H37.1058C32.4608 178.606 28.006 176.761 24.7215 173.477C21.437 170.192 19.5918 165.737 19.5918 161.092C19.5918 156.447 21.437 151.993 24.7215 148.708C28.006 145.424 32.4608 143.578 37.1058 143.578H38.3347C38.3857 143.578 38.4367 143.578 38.4877 143.577C38.513 143.577 38.5384 143.576 38.5638 143.576C45.0486 143.424 51.3377 141.325 56.6137 137.552C61.8057 133.838 65.7801 128.672 68.0391 122.707C70.548 116.872 71.283 110.425 70.149 104.171C68.9967 97.815 65.9669 91.951 61.4502 87.333C61.425 87.308 61.3997 87.282 61.3743 87.257L60.5511 86.433C58.9227 84.807 57.6309 82.875 56.7495 80.749C55.8682 78.623 55.4145 76.344 55.4145 74.042C55.4145 71.741 55.8682 69.4617 56.7495 67.3355C57.6309 65.2094 58.9227 63.2778 60.5511 61.6512L60.5588 61.6435C62.1854 60.0151 64.117 58.7233 66.2431 57.8419C68.3693 56.9606 70.648 56.5069 72.95 56.5069C75.252 56.5069 77.531 56.9606 79.657 57.8419C81.783 58.7233 83.714 60.0151 85.341 61.6435L86.164 62.4666C86.19 62.4921 86.215 62.5174 86.241 62.5426C90.858 67.0593 96.723 70.089 103.078 71.241C108.736 72.267 114.551 71.764 119.928 69.8012C120.948 69.7078 121.949 69.4548 122.894 69.0498C128.689 66.5663 133.631 62.4426 137.112 57.1863C140.593 51.93 142.461 45.7705 142.486 39.4662V39.4271V37.1058C142.486 32.4608 144.331 28.006 147.616 24.7215ZM269.05 115.113C269.114 115.362 269.171 115.574 269.216 115.741C270.211 117.78 271.734 119.52 273.631 120.777C275.697 122.145 278.118 122.881 280.595 122.894H282.894C292.735 122.894 302.173 126.804 309.132 133.762C316.091 140.721 320 150.159 320 160C320 169.841 316.091 179.279 309.132 186.238C302.173 193.196 292.735 197.106 282.894 197.106H281.686C279.209 197.119 276.789 197.855 274.724 199.223C272.653 200.594 271.029 202.541 270.05 204.824C270.036 204.856 270.022 204.888 270.008 204.92C268.981 207.248 268.674 209.83 269.128 212.334C269.58 214.822 270.762 217.12 272.523 218.934L273.295 219.705C276.745 223.152 279.482 227.244 281.349 231.748C283.216 236.253 284.177 241.081 284.177 245.958C284.177 250.834 283.216 255.662 281.349 260.167C279.482 264.67 276.747 268.761 273.299 272.206C269.853 275.654 265.762 278.39 261.259 280.256C256.755 282.124 251.926 283.085 247.05 283.085C242.174 283.085 237.345 282.124 232.841 280.256C228.336 278.389 224.244 275.652 220.798 272.202L220.026 271.431C218.212 269.669 215.915 268.487 213.426 268.036C210.923 267.582 208.34 267.889 206.012 268.916C205.98 268.93 205.948 268.944 205.916 268.958C203.633 269.936 201.686 271.561 200.315 273.631C198.947 275.698 198.211 278.119 198.198 280.597V282.894C198.198 292.735 194.289 302.173 187.33 309.132C180.371 316.091 170.933 320 161.092 320C151.251 320 141.813 316.091 134.855 309.132C127.896 302.173 123.987 292.735 123.987 282.894V281.796C123.908 279.276 123.084 276.835 121.616 274.784C120.13 272.705 118.052 271.122 115.654 270.24C115.46 270.169 115.269 270.092 115.08 270.008C112.752 268.981 110.17 268.674 107.666 269.128C105.178 269.58 102.88 270.762 101.066 272.523L100.295 273.295C96.848 276.745 92.756 279.482 88.252 281.349C83.747 283.216 78.919 284.177 74.042 284.177C69.166 284.177 64.3376 283.216 59.833 281.349C55.3294 279.482 51.2378 276.746 47.7922 273.297C44.3448 269.852 41.6098 265.762 39.7435 261.259C37.8762 256.755 36.9151 251.926 36.9151 247.05C36.9151 242.174 37.8762 237.345 39.7435 232.841C41.6108 228.336 44.3477 224.244 47.7977 220.798L48.5701 220.025C50.3312 218.212 51.5128 215.914 51.964 213.426C52.4179 210.923 52.1115 208.34 51.0841 206.012C51.07 205.98 51.056 205.948 51.0422 205.916C50.0638 203.633 48.4393 201.686 46.3687 200.315C44.302 198.947 41.881 198.211 39.4025 198.198H37.1058C27.2647 198.198 17.8267 194.289 10.868 187.33C3.9093 180.371 0 170.933 0 161.092C0 151.251 3.9093 141.813 10.868 134.855C17.8267 127.896 27.2647 123.987 37.1058 123.987H38.2041C40.7239 123.908 43.1645 123.084 45.2162 121.616C47.2946 120.13 48.8778 118.052 49.7598 115.654C49.831 115.46 49.9084 115.269 49.9917 115.08C51.0191 112.752 51.3256 110.17 50.8716 107.666C50.4204 105.178 49.2385 102.88 47.4772 101.067L46.7053 100.295L46.7026 100.292L46.7014 100.291C43.2533 96.845 40.5178 92.754 38.6511 88.252C36.7838 83.747 35.8227 78.919 35.8227 74.042C35.8227 69.166 36.7838 64.3376 38.6511 59.833C40.5178 55.3301 43.2533 51.2392 46.7014 47.7938C50.1468 44.3457 54.2377 41.6101 58.7406 39.7435C63.2452 37.8762 68.0736 36.9151 72.95 36.9151C77.826 36.9151 82.655 37.8762 87.159 39.7435C91.662 41.6101 95.753 44.3457 99.198 47.7938L99.2 47.795L99.202 47.7977L99.974 48.5696C101.788 50.3309 104.085 51.5128 106.574 51.964C109.077 52.4179 111.66 52.1115 113.988 51.0841C114.808 50.7219 115.673 50.475 116.557 50.3487C118.245 49.3679 119.692 48.0081 120.777 46.3687C122.145 44.3026 122.881 41.8824 122.894 39.4046V37.1058C122.894 27.2647 126.804 17.8267 133.762 10.868C140.721 3.9093 150.159 0 160 0C169.841 0 179.279 3.9093 186.238 10.868C193.196 17.8267 197.106 27.2647 197.106 37.1058V38.3143C197.119 40.7913 197.855 43.2108 199.223 45.2763C200.594 47.347 202.541 48.9714 204.824 49.9498C204.856 49.9636 204.888 49.9776 204.92 49.9917C207.248 51.0191 209.83 51.3256 212.334 50.8716C214.822 50.4204 217.12 49.2385 218.934 47.477L219.705 46.7053C223.152 43.2553 227.244 40.5184 231.748 38.6511C236.253 36.7838 241.081 35.8227 245.958 35.8227C250.834 35.8227 255.662 36.7838 260.167 38.6511C264.669 40.5175 268.76 43.2524 272.204 46.6998C275.653 50.1454 278.39 54.237 280.256 58.7406C282.124 63.2452 283.085 68.0736 283.085 72.95C283.085 77.826 282.124 82.655 280.256 87.159C278.39 91.662 275.654 95.753 272.206 99.198L272.202 99.202L271.428 99.976C269.645 101.808 268.637 103.538 268.007 106.724C267.85 107.523 267.916 109.508 268.407 112.183C268.619 113.34 268.861 114.372 269.05 115.113ZM128.827 159.994C128.827 142.78 142.782 128.825 159.996 128.825C177.21 128.825 191.165 142.78 191.165 159.994C191.165 177.208 177.21 191.163 159.996 191.163C142.782 191.163 128.827 177.208 128.827 159.994ZM159.996 109.234C131.962 109.234 109.235 131.96 109.235 159.994C109.235 188.029 131.962 210.755 159.996 210.755C188.03 210.755 210.757 188.029 210.757 159.994C210.757 131.96 188.03 109.234 159.996 109.234Z" fill="black"/>
</svg>
